<svg width="14" height="15" viewBox="0 0 14 15" fill="none" xmlns="http://www.w3.org/2000/svg">
<path opacity="0.2" d="M6.125 3.11255V10.9875L2.1875 7.05005L6.125 3.11255Z" fill="#888888"/>
<path d="M11.8126 6.61265H6.5626V3.11265C6.56267 3.02607 6.53705 2.94142 6.48898 2.86941C6.44091 2.7974 6.37256 2.74127 6.29257 2.70813C6.21259 2.67499 6.12457 2.66632 6.03965 2.68323C5.95474 2.70014 5.87676 2.74186 5.81557 2.80312L1.87807 6.74062C1.83739 6.78125 1.80512 6.8295 1.78311 6.88261C1.76109 6.93572 1.74976 6.99266 1.74976 7.05015C1.74976 7.10764 1.76109 7.16457 1.78311 7.21769C1.80512 7.2708 1.83739 7.31905 1.87807 7.35968L5.81557 11.2972C5.87676 11.3584 5.95474 11.4002 6.03965 11.4171C6.12457 11.434 6.21259 11.4253 6.29257 11.3922C6.37256 11.359 6.44091 11.3029 6.48898 11.2309C6.53705 11.1589 6.56267 11.0742 6.5626 10.9876V7.48765H11.8126C11.9286 7.48765 12.0399 7.44156 12.122 7.35951C12.204 7.27746 12.2501 7.16618 12.2501 7.05015C12.2501 6.93412 12.204 6.82284 12.122 6.74079C12.0399 6.65874 11.9286 6.61265 11.8126 6.61265ZM5.6876 9.93163L2.80612 7.05015L5.6876 4.16866V9.93163Z" fill="#888888"/>
</svg>
