<svg width="17" height="17" viewBox="0 0 17 17" fill="none" xmlns="http://www.w3.org/2000/svg">
<path d="M14.0901 3.03491H2.09009C1.95748 3.03491 1.8303 3.08759 1.73653 3.18136C1.64277 3.27513 1.59009 3.4023 1.59009 3.53491V12.0349C1.59009 12.3001 1.69544 12.5545 1.88298 12.742C2.07052 12.9296 2.32487 13.0349 2.59009 13.0349H13.5901C13.8553 13.0349 14.1097 12.9296 14.2972 12.742C14.4847 12.5545 14.5901 12.3001 14.5901 12.0349V3.53491C14.5901 3.4023 14.5374 3.27513 14.4436 3.18136C14.3499 3.08759 14.2227 3.03491 14.0901 3.03491ZM8.09009 8.35679L3.37571 4.03491H12.8045L8.09009 8.35679ZM6.25946 8.03491L2.59009 11.398V4.67179L6.25946 8.03491ZM6.99946 8.71304L7.74946 9.40366C7.84171 9.48834 7.96237 9.53533 8.08759 9.53533C8.21281 9.53533 8.33347 9.48834 8.42571 9.40366L9.17571 8.71304L12.8007 12.0349H3.37571L6.99946 8.71304ZM9.92071 8.03491L13.5901 4.67116V11.3987L9.92071 8.03491Z" fill="#F6F6F6"/>
</svg>
