<svg width="15" height="15" viewBox="0 0 15 15" fill="none" xmlns="http://www.w3.org/2000/svg">
<path opacity="0.2" d="M10.4651 1.78491H5.21509C4.51889 1.78491 3.85122 2.06147 3.35893 2.55376C2.86665 3.04604 2.59009 3.71372 2.59009 4.40991V9.65991C2.59009 10.3561 2.86665 11.0238 3.35893 11.5161C3.85122 12.0084 4.51889 12.2849 5.21509 12.2849H10.4651C11.1613 12.2849 11.829 12.0084 12.3212 11.5161C12.8135 11.0238 13.0901 10.3561 13.0901 9.65991V4.40991C13.0901 3.71372 12.8135 3.04604 12.3212 2.55376C11.829 2.06147 11.1613 1.78491 10.4651 1.78491ZM7.84009 9.22241C7.40744 9.22241 6.98451 9.09412 6.62478 8.85375C6.26505 8.61339 5.98467 8.27175 5.8191 7.87203C5.65353 7.47232 5.61021 7.03249 5.69462 6.60815C5.77903 6.18382 5.98736 5.79404 6.29329 5.48812C6.59922 5.18219 6.98899 4.97385 7.41333 4.88944C7.83766 4.80504 8.27749 4.84836 8.67721 5.01393C9.07692 5.17949 9.41856 5.45987 9.65893 5.8196C9.89929 6.17933 10.0276 6.60227 10.0276 7.03491C10.0276 7.61507 9.79712 8.17147 9.38688 8.58171C8.97665 8.99194 8.42025 9.22241 7.84009 9.22241Z" fill="#F6F6F6"/>
<path d="M10.4651 1.34741H5.21509C4.40313 1.34828 3.62467 1.67121 3.05053 2.24536C2.47639 2.8195 2.15346 3.59795 2.15259 4.40991V9.65991C2.15346 10.4719 2.47639 11.2503 3.05053 11.8245C3.62467 12.3986 4.40313 12.7215 5.21509 12.7224H10.4651C11.277 12.7215 12.0555 12.3986 12.6296 11.8245C13.2038 11.2503 13.5267 10.4719 13.5276 9.65991V4.40991C13.5267 3.59795 13.2038 2.8195 12.6296 2.24536C12.0555 1.67121 11.277 1.34828 10.4651 1.34741ZM12.6526 9.65991C12.6526 10.2401 12.4221 10.7965 12.0119 11.2067C11.6016 11.6169 11.0452 11.8474 10.4651 11.8474H5.21509C4.63493 11.8474 4.07853 11.6169 3.66829 11.2067C3.25806 10.7965 3.02759 10.2401 3.02759 9.65991V4.40991C3.02759 3.82975 3.25806 3.27335 3.66829 2.86312C4.07853 2.45288 4.63493 2.22241 5.21509 2.22241H10.4651C11.0452 2.22241 11.6016 2.45288 12.0119 2.86312C12.4221 3.27335 12.6526 3.82975 12.6526 4.40991V9.65991ZM7.84009 4.40991C7.32091 4.40991 6.8134 4.56387 6.38172 4.8523C5.95004 5.14074 5.61358 5.55071 5.4149 6.03037C5.21622 6.51002 5.16424 7.03782 5.26553 7.54702C5.36681 8.05622 5.61682 8.52395 5.98393 8.89107C6.35105 9.25818 6.81878 9.50819 7.32798 9.60947C7.83718 9.71076 8.36498 9.65878 8.84463 9.4601C9.32429 9.26142 9.73426 8.92496 10.0227 8.49328C10.3111 8.0616 10.4651 7.55409 10.4651 7.03491C10.4644 6.33894 10.1876 5.67168 9.69544 5.17956C9.20332 4.68743 8.53606 4.41064 7.84009 4.40991ZM7.84009 8.78491C7.49397 8.78491 7.15563 8.68228 6.86784 8.48998C6.58005 8.29769 6.35575 8.02438 6.2233 7.70461C6.09085 7.38484 6.05619 7.03297 6.12371 6.6935C6.19124 6.35404 6.35791 6.04222 6.60265 5.79748C6.84739 5.55273 7.15921 5.38606 7.49868 5.31854C7.83815 5.25101 8.19001 5.28567 8.50978 5.41812C8.82955 5.55058 9.10287 5.77488 9.29516 6.06266C9.48745 6.35045 9.59009 6.68879 9.59009 7.03491C9.59009 7.49904 9.40571 7.94416 9.07752 8.27235C8.74934 8.60054 8.30422 8.78491 7.84009 8.78491ZM11.3401 4.19116C11.3401 4.32096 11.3016 4.44784 11.2295 4.55575C11.1574 4.66367 11.0549 4.74779 10.935 4.79746C10.8151 4.84713 10.6831 4.86012 10.5558 4.8348C10.4285 4.80948 10.3116 4.74698 10.2198 4.6552C10.128 4.56342 10.0655 4.44649 10.0402 4.31919C10.0149 4.19189 10.0279 4.05994 10.0775 3.94003C10.1272 3.82011 10.2113 3.71762 10.3192 3.64551C10.4272 3.5734 10.554 3.53491 10.6838 3.53491C10.8579 3.53491 11.0248 3.60405 11.1479 3.72712C11.2709 3.85019 11.3401 4.01711 11.3401 4.19116Z" fill="#F6F6F6"/>
</svg>
