<svg width="20" height="21" viewBox="0 0 20 21" fill="none" xmlns="http://www.w3.org/2000/svg">
<path opacity="0.2" d="M13.7501 8.91992L5.80791 16.8621C5.69071 16.9792 5.53181 17.045 5.36612 17.045C5.20043 17.045 5.04152 16.9792 4.92432 16.8621L3.30791 15.248C3.19079 15.1308 3.125 14.9719 3.125 14.8062C3.125 14.6406 3.19079 14.4817 3.30791 14.3645L11.2501 6.41992L13.7501 8.91992Z" fill="#00FFE1"/>
<path d="M19.3751 12.0449C19.3751 12.2107 19.3093 12.3697 19.192 12.4869C19.0748 12.6041 18.9159 12.6699 18.7501 12.6699H17.5001V13.9199C17.5001 14.0857 17.4343 14.2447 17.317 14.3619C17.1998 14.4791 17.0409 14.5449 16.8751 14.5449C16.7093 14.5449 16.5504 14.4791 16.4332 14.3619C16.316 14.2447 16.2501 14.0857 16.2501 13.9199V12.6699H15.0001C14.8343 12.6699 14.6754 12.6041 14.5582 12.4869C14.441 12.3697 14.3751 12.2107 14.3751 12.0449C14.3751 11.8792 14.441 11.7202 14.5582 11.603C14.6754 11.4858 14.8343 11.4199 15.0001 11.4199H16.2501V10.1699C16.2501 10.0042 16.316 9.84519 16.4332 9.72798C16.5504 9.61077 16.7093 9.54492 16.8751 9.54492C17.0409 9.54492 17.1998 9.61077 17.317 9.72798C17.4343 9.84519 17.5001 10.0042 17.5001 10.1699V11.4199H18.7501C18.9159 11.4199 19.0748 11.4858 19.192 11.603C19.3093 11.7202 19.3751 11.8792 19.3751 12.0449ZM4.3751 5.79492H5.6251V7.04492C5.6251 7.21068 5.69095 7.36965 5.80816 7.48686C5.92537 7.60407 6.08434 7.66992 6.2501 7.66992C6.41586 7.66992 6.57484 7.60407 6.69205 7.48686C6.80926 7.36965 6.8751 7.21068 6.8751 7.04492V5.79492H8.1251C8.29086 5.79492 8.44984 5.72907 8.56705 5.61186C8.68426 5.49465 8.7501 5.33568 8.7501 5.16992C8.7501 5.00416 8.68426 4.84519 8.56705 4.72798C8.44984 4.61077 8.29086 4.54492 8.1251 4.54492H6.8751V3.29492C6.8751 3.12916 6.80926 2.97019 6.69205 2.85298C6.57484 2.73577 6.41586 2.66992 6.2501 2.66992C6.08434 2.66992 5.92537 2.73577 5.80816 2.85298C5.69095 2.97019 5.6251 3.12916 5.6251 3.29492V4.54492H4.3751C4.20934 4.54492 4.05037 4.61077 3.93316 4.72798C3.81595 4.84519 3.7501 5.00416 3.7501 5.16992C3.7501 5.33568 3.81595 5.49465 3.93316 5.61186C4.05037 5.72907 4.20934 5.79492 4.3751 5.79492ZM14.3751 15.1699H13.7501V14.5449C13.7501 14.3792 13.6843 14.2202 13.567 14.103C13.4498 13.9858 13.2909 13.9199 13.1251 13.9199C12.9593 13.9199 12.8004 13.9858 12.6832 14.103C12.566 14.2202 12.5001 14.3792 12.5001 14.5449V15.1699H11.8751C11.7093 15.1699 11.5504 15.2358 11.4332 15.353C11.316 15.4702 11.2501 15.6292 11.2501 15.7949C11.2501 15.9607 11.316 16.1197 11.4332 16.2369C11.5504 16.3541 11.7093 16.4199 11.8751 16.4199H12.5001V17.0449C12.5001 17.2107 12.566 17.3697 12.6832 17.4869C12.8004 17.6041 12.9593 17.6699 13.1251 17.6699C13.2909 17.6699 13.4498 17.6041 13.567 17.4869C13.6843 17.3697 13.7501 17.2107 13.7501 17.0449V16.4199H14.3751C14.5409 16.4199 14.6998 16.3541 14.817 16.2369C14.9343 16.1197 15.0001 15.9607 15.0001 15.7949C15.0001 15.6292 14.9343 15.4702 14.817 15.353C14.6998 15.2358 14.5409 15.1699 14.3751 15.1699ZM17.1337 6.41992L6.2501 17.3035C6.01571 17.5378 5.69789 17.6693 5.36651 17.6693C5.03513 17.6693 4.71731 17.5378 4.48292 17.3035L2.86573 15.6879C2.74963 15.5718 2.65753 15.434 2.59469 15.2823C2.53185 15.1307 2.49951 14.9681 2.49951 14.8039C2.49951 14.6397 2.53185 14.4772 2.59469 14.3255C2.65753 14.1738 2.74963 14.036 2.86573 13.9199L13.7501 3.03633C13.8662 2.92022 14.004 2.82812 14.1557 2.76529C14.3073 2.70245 14.4699 2.67011 14.6341 2.67011C14.7983 2.67011 14.9608 2.70245 15.1125 2.76529C15.2642 2.82812 15.402 2.92022 15.5181 3.03633L17.1337 4.65195C17.2498 4.76803 17.3419 4.90584 17.4047 5.05752C17.4676 5.20919 17.4999 5.37176 17.4999 5.53594C17.4999 5.70011 17.4676 5.86268 17.4047 6.01436C17.3419 6.16603 17.2498 6.30384 17.1337 6.41992ZM12.8657 8.91992L11.2501 7.30352L3.7501 14.8035L5.36573 16.4199L12.8657 8.91992ZM16.2501 5.53633L14.6337 3.91992L12.1337 6.41992L13.7501 8.03633L16.2501 5.53633Z" fill="#00FFE1"/>
</svg>
