<svg width="20" height="21" viewBox="0 0 20 21" fill="none" xmlns="http://www.w3.org/2000/svg">
<path opacity="0.2" d="M17.8954 9.26904L14.0907 12.5503L15.2532 17.4558C15.2839 17.5818 15.2766 17.7142 15.2321 17.8361C15.1876 17.958 15.108 18.064 15.0034 18.1406C14.8987 18.2173 14.7736 18.2612 14.644 18.2668C14.5143 18.2724 14.386 18.2395 14.275 18.1722L10 15.5425L5.72504 18.1714C5.61412 18.2387 5.48574 18.2717 5.3561 18.266C5.22647 18.2604 5.1014 18.2165 4.99672 18.1398C4.89204 18.0632 4.81244 17.9572 4.76798 17.8353C4.72351 17.7134 4.71618 17.581 4.74692 17.455L5.90942 12.5495L2.10473 9.26826C2.00772 9.18308 1.93779 9.07136 1.90355 8.94689C1.86931 8.82242 1.87228 8.69064 1.91208 8.56784C1.95188 8.44503 2.02677 8.33657 2.12751 8.25584C2.22825 8.17511 2.35042 8.12565 2.47895 8.11357L7.47192 7.70732L9.39536 3.05107C9.44439 2.93094 9.52809 2.82814 9.63579 2.75578C9.74348 2.68342 9.87029 2.64478 10 2.64478C10.1298 2.64478 10.2566 2.68342 10.3643 2.75578C10.472 2.82814 10.5557 2.93094 10.6047 3.05107L12.5282 7.70732L17.5211 8.11357C17.6498 8.12551 17.7722 8.17493 17.8731 8.25571C17.974 8.33648 18.049 8.44507 18.0889 8.56804C18.1287 8.691 18.1316 8.82295 18.0972 8.94754C18.0628 9.07214 17.9926 9.18391 17.8954 9.26904Z" fill="#00FFE1"/>
<path d="M18.6859 8.36835C18.6077 8.12813 18.4602 7.91642 18.262 7.75988C18.0637 7.60333 17.8236 7.50896 17.5718 7.48866L12.9624 7.11679L11.1827 2.81288C11.0865 2.57836 10.9227 2.37776 10.7121 2.23658C10.5016 2.0954 10.2538 2.02002 10.0003 2.02002C9.74682 2.02002 9.49905 2.0954 9.2885 2.23658C9.07795 2.37776 8.91414 2.57836 8.8179 2.81288L7.03977 7.116L2.42806 7.48866C2.17585 7.50999 1.93555 7.60527 1.73725 7.76257C1.53896 7.91987 1.3915 8.13219 1.31334 8.37292C1.23518 8.61366 1.2298 8.87211 1.29787 9.11589C1.36595 9.35967 1.50445 9.57794 1.69602 9.74335L5.21165 12.7769L4.14056 17.3129C4.08065 17.5593 4.09532 17.818 4.18269 18.0561C4.27007 18.2941 4.42621 18.5009 4.6313 18.65C4.8364 18.7992 5.08118 18.8841 5.3346 18.8939C5.58801 18.9037 5.83862 18.838 6.05462 18.7051L9.99993 16.2769L13.9476 18.7051C14.1637 18.8364 14.4138 18.9008 14.6664 18.8903C14.919 18.8798 15.1629 18.7947 15.3673 18.6459C15.5717 18.497 15.7274 18.291 15.815 18.0538C15.9026 17.8166 15.918 17.5588 15.8593 17.3129L14.7843 12.7762L18.2999 9.74257C18.4931 9.57743 18.6328 9.35869 18.7015 9.11405C18.7702 8.86941 18.7648 8.60989 18.6859 8.36835ZM17.4874 8.79569L13.6827 12.0769C13.596 12.1517 13.5314 12.2489 13.4962 12.3579C13.4609 12.4669 13.4562 12.5835 13.4827 12.6949L14.6452 17.6012C14.6483 17.6079 14.6486 17.6156 14.6461 17.6226C14.6436 17.6295 14.6386 17.6353 14.632 17.6387C14.6179 17.6496 14.614 17.6473 14.6023 17.6387L10.3273 15.0098C10.2288 14.9492 10.1155 14.9172 9.99993 14.9172C9.88435 14.9172 9.77104 14.9492 9.67259 15.0098L5.39759 17.6402C5.38587 17.6473 5.38274 17.6496 5.3679 17.6402C5.36131 17.6369 5.35625 17.6311 5.35378 17.6241C5.35131 17.6171 5.35161 17.6095 5.35462 17.6027L6.51712 12.6965C6.54361 12.585 6.53897 12.4685 6.5037 12.3595C6.46843 12.2505 6.40388 12.1533 6.31712 12.0785L2.51243 8.79725C2.50306 8.78944 2.49446 8.78241 2.50227 8.75819C2.51009 8.73397 2.51634 8.7371 2.52806 8.73554L7.52181 8.33241C7.63634 8.32259 7.74595 8.28136 7.83858 8.21327C7.9312 8.14518 8.00325 8.05286 8.04681 7.94647L9.97024 3.28944C9.97649 3.27616 9.97884 3.26991 9.99759 3.26991C10.0163 3.26991 10.0187 3.27616 10.0249 3.28944L11.9531 7.94647C11.997 8.0529 12.0695 8.14512 12.1626 8.21295C12.2556 8.28078 12.3656 8.32158 12.4804 8.33085L17.4741 8.73397C17.4859 8.73397 17.4929 8.73397 17.4999 8.75663C17.507 8.77929 17.4999 8.78788 17.4874 8.79569Z" fill="#00FFE1"/>
</svg>
