<svg width="20" height="21" viewBox="0 0 20 21" fill="none" xmlns="http://www.w3.org/2000/svg">
<path opacity="0.2" d="M7.5 19.22L8.75 12.97L3.75 11.095L12.5 1.71997L11.25 7.96997L16.25 9.84497L7.5 19.22Z" fill="#00FFE1"/>
<path d="M16.8584 9.70205C16.8347 9.60187 16.7867 9.5091 16.7185 9.43196C16.6504 9.35482 16.5642 9.2957 16.4678 9.25986L11.967 7.57158L13.1123 1.84267C13.1382 1.70956 13.1202 1.57163 13.0608 1.44969C13.0015 1.32774 12.9041 1.22841 12.7834 1.16667C12.6626 1.10493 12.5251 1.08414 12.3915 1.10743C12.2579 1.13073 12.1355 1.19684 12.0427 1.2958L3.29275 10.6708C3.22168 10.7457 3.17027 10.837 3.14311 10.9366C3.11595 11.0362 3.11389 11.141 3.1371 11.2416C3.16031 11.3422 3.20808 11.4354 3.27614 11.5131C3.3442 11.5907 3.43043 11.6503 3.52713 11.6864L8.02947 13.3747L6.88728 19.0974C6.86135 19.2305 6.87941 19.3684 6.93874 19.4903C6.99808 19.6123 7.09547 19.7116 7.21621 19.7734C7.33695 19.8351 7.4745 19.8559 7.6081 19.8326C7.74169 19.8093 7.86409 19.7432 7.95681 19.6442L16.7068 10.2692C16.7766 10.1943 16.8269 10.1034 16.8533 10.0045C16.8798 9.90565 16.8815 9.80177 16.8584 9.70205ZM8.54431 17.1888L9.36228 13.0966C9.39156 12.9514 9.36836 12.8006 9.29682 12.671C9.22529 12.5414 9.11005 12.4414 8.97166 12.3888L4.84353 10.838L11.4545 3.75517L10.6373 7.84736C10.608 7.99249 10.6312 8.1433 10.7027 8.27293C10.7743 8.40255 10.8895 8.50257 11.0279 8.55517L15.1529 10.102L8.54431 17.1888Z" fill="#00FFE1"/>
</svg>
